<?xml version="1.0" encoding="iso-8859-1"?>
<!-- Generator: Adobe Illustrator 19.0.0, SVG Export Plug-In . SVG Version: 6.00 Build 0)  -->
<svg version="1.1" id="Layer_1" xmlns="http://www.w3.org/2000/svg" xmlns:xlink="http://www.w3.org/1999/xlink" x="0px" y="0px"
	 viewBox="0 0 508 508" style="enable-background:new 0 0 508 508;" xml:space="preserve">
<path style="fill:#33A5D2;" d="M473.8,252.4c0-0.8,0-1.2,0-2C471.8,132,375.8,36,257.4,34c-0.8,0-1.2,0-2,0c-0.8,0-1.2,0-2,0
	c-0.4,0-0.8,0-1.2,0c-0.8,0-1.2,0-2,0C131.4,35.6,35.4,132,33.4,250.4c0,0.8,0,1.2,0,2c0,0.4,0,1.2,0,1.6s0,1.2,0,1.6s0,1.2,0,1.6
	c1.6,118.8,98,215.2,216.8,217.2c0.8,0,1.2,0,2,0c0.4,0,0.8,0,1.2,0c0.8,0,1.2,0,2,0c0.8,0,1.2,0,2,0
	c118.4-2,214.4-98.4,216.4-216.8c0-0.4,0-1.2,0-1.6s0-1.2,0-1.6C473.8,253.6,473.8,252.8,473.8,252.4z M259,447.2c-0.8,0-1.2,0-2,0
	s-1.2,0-2,0c-0.4,0-0.8,0-1.2,0s-0.4,0-0.8,0c-0.8,0-1.2,0-2,0s-1.2,0-2,0c-102.8-2.4-185.6-86-187.6-188.8c0-0.4-1.6-1.2-1.6-1.6
	c0-0.8-1.6-1.2-1.6-2l0,0c0-0.8,1.6-1.2,1.6-2s0.8-1.2,0.8-2s0.4-1.2,0.4-2c3.2-101.6,86-183.6,187.6-186.4c0.8,0,1.6,0,2,0
	c0.8,0,1.2,0,2,0c0.4,0,0.8,0,0.8,0c0.4,0,0.8,0,1.2,0c0.8,0,1.2,0,2,0c0.8,0,1.2,0,2,0c43.2,1.2,84.8,16.8,116,46.4l24.8,24.8
	c29.6,31.2,45.2,72.4,46.8,115.2c0,0.8,0,1.2,0,2s-2,1.2-2,2s-2,1.6-2,2l0,0c0,0.8,2,1.2,2,2c0,0.4,1.2,1.2,1.2,1.6
	C443,361.2,361.4,444.4,259,447.2z"/>
<g>
	<path style="fill:#E9B526;" d="M224.2,214.4l-60.4-49.2l49.6,60.4C216.2,221.2,219.8,217.6,224.2,214.4z"/>
	<path style="fill:#E9B526;" d="M281.8,294.4l61.6,50.4l-50-61.2C289.8,287.6,286.2,291.2,281.8,294.4z"/>
	<path style="fill:#E9B526;" d="M293.8,225.6l49.6-60.4L283,214.4C287,217.6,291,221.2,293.8,225.6z"/>
	<path style="fill:#E9B526;" d="M213.8,283.6l-50,61.2l61.2-50.4C221,291.2,217,287.6,213.8,283.6z"/>
</g>
<g>
	<path style="fill:#73BADD;" d="M279.4,212l76.4-62.8l0,0h0.4h0.4h0.4h0.4h0.4h0.4l0,0l0,0l0,0l0,0v0.4v0.4v0.4v0.4v0.4v0.4l0,0
		l-62.8,76.8c2,3.6,4,7.6,5.2,12l0,0l140.8,7.6c-1.6-41.6-16.8-82-42-115.2L375,108.4c-33.6-26-74.4-41.2-116.4-42.4l7.6,140
		C271.4,207.6,275.8,209.6,279.4,212z"/>
	<path style="fill:#73BADD;" d="M228.6,296.8L228.6,296.8L151,360.4c0,0,0,0-0.4,0c0,0,0,0-0.4,0s-0.4,0-0.8,0s-0.4,0-0.8,0
		c0,0,0,0-0.4,0c0,0,0,0-0.4,0l0,0l0,0l0,0V360v-0.4v-0.4v-0.4v-0.4V358l0,0l63.6-77.6c-2.8-4.4-4.8-8.8-6-14L65,259.2
		c2,100.4,83.2,182,183.6,184.4L241,302C236.6,300.4,232.6,298.8,228.6,296.8z"/>
	<path style="fill:#73BADD;" d="M211,228.8L148.2,152l0,0v-0.4v-0.4v-0.4v-0.4V150v-0.4l0,0l0,0l0,0l0,0h0.4h0.4h0.4h0.4h0.4h0.4
		l0,0l76.4,62.8c4-2.4,8.8-4.4,13.6-6l7.6-139.6c-99.6,2.8-180,82.8-183.2,182l140.8-7.6C207,236.8,208.6,232.8,211,228.8z"/>
	<path style="fill:#73BADD;" d="M301.4,266c-1.2,4.8-3.2,9.6-6,13.6l63.6,77.6l0,0v0.4v0.4v0.4v0.4v0.4v0.4l0,0l0,0l0,0
		c0,0,0,0-0.4,0c0,0,0,0-0.4,0s-0.4,0-0.8,0c-0.4,0-0.4,0-0.8,0c0,0,0,0-0.4,0c0,0,0,0-0.4,0L278.2,296c0,0,0,0,0-0.4
		c-3.6,2-7.6,4-11.6,4.8l-7.6,142c100-2.8,180.8-84,182.8-184.4L301.4,266z"/>
</g>
<g>
	<path style="fill:#E9B526;" d="M264.6,214c-0.4,0-0.8-2-1.2-2.8c-3.2-0.8-6.4-2-10-2c-25.2,0-45.6,20-45.6,45.2
		s20.4,45.2,45.6,45.2S299,279.2,299,254c0-21.2-14.4-37.2-34-42.4C265,212,265,214,264.6,214C265,214,264.6,214,264.6,214z
		 M275,244c1.2-0.4,2,0,2.4,1.2c1.2,2.8,1.6,6,1.6,9.2c0,14.4-11.6,25.6-25.6,25.6c-14.4,0-25.6-11.6-25.6-25.6s11.6-25.6,25.6-25.6
		c3.2,0,6,0.4,8.8,1.6c1.2,0.4,1.6,1.6,1.2,2.4c0,0.4-0.4,0.4-0.4,0.8l11.2,11.2C274.6,244,274.6,244,275,244z"/>
	<path style="fill:#E9B526;" d="M204.2,254c0-3.2,0.4-6,0.8-8.8l-140,7.6c0,0.8,0,1.6,0,2.4v0.4l140,7.6
		C204.2,260,204.2,257.2,204.2,254z"/>
	<path style="fill:#E9B526;" d="M303,254c0,2.8-0.4,6-0.8,8.8l140-7.6c0,0,0,0,0-0.4c0-0.8,0-1.6,0-2.4l-140-7.6
		C302.6,248,303,250.8,303,254z"/>
	<path style="fill:#E9B526;" d="M253.4,303.6c-2.8,0-5.6-0.4-8.4-0.8l7.6,140.8c0.4,0,0.8,0,1.2,0s1.2,0,1.6,0l7.6-140.8
		C259.8,303.2,256.6,303.6,253.4,303.6z"/>
	<path style="fill:#E9B526;" d="M253.4,204.4c3.2,0,6,0.4,9.2,0.8L255,66c-0.4,0-1.2,0-1.6,0c-0.4,0-0.8,0-1.2,0l-7.6,138.8
		C247.8,204.8,250.6,204.4,253.4,204.4z"/>
</g>
<path style="fill:#33A5D2;" d="M261,233.6c-2.4-0.8-4.8-1.2-7.6-1.2c-12,0-21.6,9.6-21.6,21.6s9.6,21.6,21.6,21.6
	c12,0,21.6-9.6,21.6-21.6c0-2.8-0.4-5.2-1.2-7.6c-0.4-0.8,0-1.6,0.4-2L263,233.2C262.6,233.6,261.8,234,261,233.6z"/>
<path d="M253.4,305.6c-28.4,0-51.6-23.2-51.6-51.6s23.2-51.6,51.6-51.6c28.4,0,51.6,23.2,51.6,51.6
	C305,282.4,281.8,305.6,253.4,305.6z M253.4,210.4c-24,0-43.6,19.6-43.6,43.6s19.6,43.6,43.6,43.6S297,278,297,254
	S277.4,210.4,253.4,210.4z"/>
<path d="M206.6,268.8C206.6,268.8,206.2,268.8,206.6,268.8L3.8,258c-2,0-3.6-2-3.6-4s1.6-4,3.6-4l202.8-10.8c2,0,4,1.6,4.4,3.6
	s-1.6,4-3.6,4.4L78.6,254l128.8,6.8c2.4,0,4,2,3.6,4.4C210.2,267.2,208.6,268.8,206.6,268.8z"/>
<path d="M301,268.8c-2,0-4-1.6-4-3.6c0-2.4,1.6-4,3.6-4.4l128.8-6.8l-128.8-6.8c-2.4,0-4-2-3.6-4.4c0-2.4,2-4,4.4-3.6L504.2,250
	c2,0,3.6,2,3.6,4s-1.6,4-3.6,4L301,268.8C301.4,268.8,301,268.8,301,268.8z"/>
<path d="M253.8,508L253.8,508c-2,0-4-1.6-4-3.6L239,301.6c0-2.4,1.6-4,3.6-4.4c2,0,4,1.6,4.4,3.6l6.8,128.8l6.8-128.8
	c0-2.4,2-4,4.4-3.6c2.4,0,4,2,3.6,4.4l-10.8,202.8C257.8,506.4,255.8,508,253.8,508z"/>
<path d="M264.6,210.8c-2,0-4-1.6-4-3.6l-6.8-128.8L247,207.2c0,2.4-2,4-4.4,3.6c-2.4,0-4-2-3.6-4.4L249.8,3.6c0-2,2-3.6,4-3.6
	s4,1.6,4,3.6l10.8,202.8C269,208.8,267,210.4,264.6,210.8C265,210.8,265,210.8,264.6,210.8z"/>
<path d="M213,232.4c-1.2,0-2.4-0.4-3.2-1.6l-63.6-77.6c-1.2-1.6-1.2-4.4,0.4-5.6c1.6-1.2,4.4-1.2,5.6,0.4l63.6,77.6
	c1.2,1.6,1.2,4.4-0.4,5.6C215,232.4,214.2,232.4,213,232.4z"/>
<path d="M227.4,218.4c-0.8,0-1.6-0.4-2.4-0.8L147.4,154c-1.6-1.6-2-4-0.4-5.6c1.2-1.6,4-2,5.6-0.4l77.6,63.6c1.6,1.6,2,4,0.4,5.6
	C229.4,218,228.6,218.4,227.4,218.4z"/>
<path d="M357.4,362.8c-1.2,0-2.4-0.4-3.2-1.6l-63.6-77.6c-1.6-1.6-1.2-4.4,0.4-5.6c1.6-1.6,4.4-1.2,5.6,0.4l63.6,77.6
	c1.6,1.6,1.2,4.4-0.4,5.6C359.4,362.4,358.2,362.8,357.4,362.8z"/>
<path d="M357.4,362.8c-0.8,0-1.6-0.4-2.4-0.8l-77.6-63.6c-1.6-1.2-2-4-0.4-5.6c1.2-1.6,4-2,5.6-0.4l77.6,63.6c1.6,1.2,2,4,0.4,5.6
	C359.8,362.4,358.6,362.8,357.4,362.8z"/>
<path d="M253.4,480.4C128.6,480.4,27,378.8,27,254S128.6,27.6,253.4,27.6S479.8,129.2,479.8,254
	C479.8,378.8,378.2,480.4,253.4,480.4z M253.4,35.6C133,35.6,35,133.6,35,254s98,218.4,218.4,218.4s218.4-98,218.4-218.4
	C471.8,133.6,373.8,35.6,253.4,35.6z"/>
<path d="M149.8,362.8c-1.2,0-2.4-0.4-3.2-1.6c-1.2-1.6-1.2-4.4,0.4-5.6l77.6-63.6c1.6-1.6,4.4-1.2,5.6,0.4c1.2,1.6,1.2,4.4-0.4,5.6
	l-77.6,63.6C151.4,362.4,150.6,362.8,149.8,362.8z"/>
<path d="M149.8,362.8c-0.8,0-1.6-0.4-2.4-0.8c-1.6-1.2-2-4-0.4-5.6l63.6-77.6c1.6-1.6,4-2,5.6-0.4c1.6,1.2,2,4,0.4,5.6L153,361.6
	C151.8,362.4,151,362.8,149.8,362.8z"/>
<path d="M279.8,218.4c-1.2,0-2.4-0.4-3.2-1.6c-1.6-1.6-1.2-4.4,0.4-5.6l77.6-63.6c1.6-1.6,4.4-1.2,5.6,0.4c1.6,1.6,1.2,4.4-0.4,5.6
	l-77.6,63.6C281.8,218,280.6,218.4,279.8,218.4z"/>
<path d="M293.8,232.4c-0.8,0-1.6-0.4-2.4-0.8c-1.6-1.6-2-4-0.4-5.6l63.6-77.6c1.2-1.6,4-2,5.6-0.4s2,4,0.4,5.6L297,231.2
	C296.2,232,295,232.4,293.8,232.4z"/>
<path d="M253.4,281.6c-15.2,0-27.6-12.4-27.6-27.6s12.4-27.6,27.6-27.6c3.2,0,6.4,0.4,9.6,1.6c2,0.8,3.2,3.2,2.4,5.2
	s-3.2,3.2-5.2,2.4c-2-0.8-4.4-1.2-6.8-1.2c-10.8,0-19.6,8.8-19.6,19.6c0,10.8,8.8,19.6,19.6,19.6c10.8,0,19.6-8.8,19.6-19.6
	c0-2.4-0.4-4.8-1.2-6.8s0.4-4.4,2.4-5.2c2-0.8,4.4,0.4,5.2,2.4c1.2,3.2,1.6,6.4,1.6,9.6C281.4,269.2,269,281.6,253.4,281.6z"/>
<path d="M253.4,449.6C146.2,449.6,59,362.4,59,255.2C59,148,146.2,60.8,253.4,60.8c45.2,0,89.6,16,124.4,45.2c1.6,1.6,2,4,0.4,5.6
	s-4,2-5.6,0.4c-33.6-28-76-43.2-119.2-43.2C150.6,68.8,67,152.4,67,255.2s83.6,186.4,186.4,186.4S439.8,358,439.8,255.2
	c0-43.6-15.2-86-43.2-119.2c-1.6-1.6-1.2-4.4,0.4-5.6c1.6-1.6,4.4-1.2,5.6,0.4c29.2,34.8,45.2,79.2,45.2,124.4
	C448.2,362.4,361,449.6,253.4,449.6z"/>
<g>
</g>
<g>
</g>
<g>
</g>
<g>
</g>
<g>
</g>
<g>
</g>
<g>
</g>
<g>
</g>
<g>
</g>
<g>
</g>
<g>
</g>
<g>
</g>
<g>
</g>
<g>
</g>
<g>
</g>
</svg>
