<?xml version="1.0" standalone="no"?>
<!DOCTYPE svg PUBLIC "-//W3C//DTD SVG 20010904//EN"
 "http://www.w3.org/TR/2001/REC-SVG-20010904/DTD/svg10.dtd">
<svg version="1.0" xmlns="http://www.w3.org/2000/svg"
 width="301.000000pt" height="385.000000pt" viewBox="0 0 301.000000 385.000000"
 preserveAspectRatio="xMidYMid meet">
<metadata>
Created by potrace 1.16, written by Peter Selinger 2001-2019
</metadata>
<g transform="translate(0.000000,385.000000) scale(0.100000,-0.100000)"
fill="#000000" stroke="none">
<path d="M1810 3835 c-108 -24 -107 -24 -115 -111 -8 -85 -1 -109 35 -109 17
0 27 12 46 59 13 33 30 63 36 67 16 10 108 23 114 16 13 -12 -29 -79 -76 -124
-95 -88 -166 -183 -184 -246 -20 -69 -15 -91 24 -107 37 -15 60 0 60 40 0 38
48 105 154 218 96 100 116 130 134 196 14 50 3 72 -51 97 -48 21 -98 23 -177
4z"/>
<path d="M2250 2855 c-113 -29 -241 -62 -285 -74 -148 -39 -465 -77 -693 -84
-139 -4 -179 -9 -210 -24 l-37 -18 2 -110 c2 -116 20 -277 53 -460 11 -60 20
-114 20 -118 0 -14 -130 -146 -185 -187 -27 -21 -110 -96 -182 -168 -123 -120
-138 -132 -213 -162 -50 -20 -90 -43 -105 -62 -30 -35 -31 -44 -6 -60 18 -11
16 -13 -19 -39 -68 -49 -75 -98 -13 -82 27 6 28 2 8 -37 -14 -27 -14 -30 0
-30 20 0 91 35 130 65 65 49 311 184 364 200 l24 7 -7 -225 c-4 -124 -4 -247
-1 -272 8 -51 31 -71 71 -61 18 5 24 13 24 36 0 16 4 31 9 35 6 3 41 -1 78 -9
37 -8 91 -18 118 -21 63 -8 331 -61 408 -81 81 -21 275 -33 515 -34 l202 0 1
-27 c6 -110 -17 -314 -42 -381 -21 -55 -133 -223 -140 -210 -4 7 -10 48 -14
91 -7 74 -6 79 13 84 25 6 37 32 22 47 -7 7 -112 11 -293 12 -155 2 -320 8
-367 14 -47 6 -133 14 -192 17 -105 5 -108 5 -108 -16 0 -14 8 -22 28 -27 15
-3 39 -9 54 -13 l28 -6 -82 -95 c-44 -52 -85 -95 -91 -95 -6 0 -32 43 -59 95
-55 107 -70 172 -87 374 -6 70 -14 132 -17 137 -3 5 -18 9 -34 9 -23 0 -31 -5
-36 -26 -16 -65 37 -411 81 -524 5 -13 -4 -15 -57 -10 -35 3 -139 0 -233 -7
-93 -6 -226 -12 -295 -13 -69 0 -170 -5 -225 -11 -55 -6 -113 -12 -128 -13
-37 -4 -51 -19 -43 -50 8 -32 7 -31 311 -51 132 -9 301 -20 375 -26 310 -24
446 -29 860 -34 239 -3 468 -10 509 -16 l73 -11 34 33 c28 27 136 196 184 289
23 43 40 160 50 325 7 133 13 173 35 235 24 67 27 88 26 205 -1 72 -6 148 -11
170 -23 96 -8 105 93 54 91 -46 180 -113 212 -160 16 -22 41 -47 56 -55 32
-16 79 -19 79 -5 0 6 15 11 32 13 39 4 49 30 23 58 -16 18 -15 19 21 22 20 2
39 8 41 15 6 18 -54 80 -95 96 -21 8 -59 18 -84 22 -45 7 -46 8 -36 31 10 21
5 30 -45 88 -31 35 -104 108 -162 162 -59 54 -118 118 -132 143 -15 25 -33 54
-42 64 -12 14 -16 65 -22 250 -5 128 -11 244 -15 258 -9 40 8 61 81 98 50 26
71 43 85 72 11 20 35 47 55 59 43 26 76 67 69 85 -9 22 -127 38 -225 32 l-88
-7 85 106 c95 119 107 155 52 153 -18 -1 -125 -25 -238 -54z m154 -47 c-97
-118 -226 -219 -288 -228 -33 -4 -41 -9 -41 -25 0 -17 6 -20 45 -19 25 0 97
15 160 31 97 26 127 30 193 26 42 -3 77 -9 77 -12 0 -14 -127 -130 -159 -146
-19 -9 -50 -17 -70 -17 -20 0 -120 0 -222 1 -172 1 -268 -5 -439 -29 -36 -5
-123 -12 -195 -16 -139 -7 -210 -25 -277 -69 -34 -22 -38 -23 -39 -8 0 10 -6
77 -14 148 l-14 130 28 26 c25 23 41 27 117 34 182 14 602 65 669 80 39 9 111
28 160 42 110 31 283 71 309 72 19 1 19 1 0 -21z m-134 -447 c24 -6 25 -12 32
-101 4 -52 8 -162 8 -244 0 -122 -4 -157 -19 -190 -9 -23 -21 -54 -25 -69 -5
-22 -19 -34 -59 -52 -46 -21 -73 -24 -242 -30 -212 -8 -457 12 -551 44 -64 21
-162 79 -179 106 -7 11 -23 86 -34 166 l-22 146 21 56 c38 100 83 120 300 133
63 3 174 14 245 24 132 18 474 25 525 11z m-1155 -531 c7 -34 82 -112 129
-134 20 -9 88 -19 182 -25 82 -6 189 -16 237 -21 48 -6 186 -10 305 -8 l218 3
77 38 c42 21 81 46 86 56 9 15 37 -9 206 -173 107 -105 195 -196 195 -203 0
-7 -13 -26 -30 -43 l-29 -30 -62 36 c-92 55 -181 92 -224 96 -35 3 -40 0 -49
-25 -7 -19 -6 -47 4 -95 9 -41 15 -126 15 -222 0 -149 -1 -157 -27 -206 l-27
-51 -76 -7 c-89 -8 -511 3 -570 14 -22 5 -80 18 -130 29 -110 26 -206 45 -350
67 -152 23 -169 31 -189 90 -12 37 -16 85 -15 218 1 192 6 223 35 218 82 -14
80 12 -6 55 -36 17 -68 32 -72 32 -4 1 -14 -15 -23 -34 -11 -29 -26 -41 -72
-61 -32 -14 -88 -43 -124 -65 -37 -21 -72 -39 -77 -39 -12 0 -32 46 -32 74 0
17 27 47 93 107 50 46 144 134 207 195 161 155 183 168 195 114z m450 -1493
c34 -6 147 -12 260 -12 l200 0 6 -52 c4 -29 10 -64 13 -77 l6 -25 -302 0
c-167 0 -340 2 -384 5 l-82 6 45 77 c25 42 49 81 54 87 10 13 97 9 184 -9z"/>
<path d="M1549 1919 c-29 -11 -49 -46 -49 -85 0 -44 95 -60 167 -26 63 28 68
49 24 93 -24 23 -38 29 -73 28 -24 0 -55 -5 -69 -10z"/>
</g>
</svg>
