<?xml version="1.0" encoding="iso-8859-1"?>
<!-- Generator: Adobe Illustrator 19.0.0, SVG Export Plug-In . SVG Version: 6.00 Build 0)  -->
<svg version="1.1" id="Layer_1" xmlns="http://www.w3.org/2000/svg" xmlns:xlink="http://www.w3.org/1999/xlink" x="0px" y="0px"
	 viewBox="0 0 512 512" style="enable-background:new 0 0 512 512;" xml:space="preserve">
<g>
	<g>
		<path d="M256,0C114.843,0,0.001,114.844,0.001,256.001C0.001,397.156,114.843,512,256,512s255.999-114.844,255.999-255.999
			C511.999,114.844,397.157,0,256,0z M256,493.037c-53.317,0-102.575-17.701-142.218-47.525
			c0.08-62.687,63.846-113.659,142.218-113.659s142.138,50.972,142.218,113.659C358.575,475.336,309.317,493.037,256,493.037z
			 M416.124,430.614C407.036,364.466,338.713,312.89,256,312.89S104.964,364.466,95.876,430.614
			C48.63,387.253,18.964,325.029,18.964,256.001C18.964,125.296,125.297,18.963,256,18.963s237.036,106.333,237.036,237.038
			C493.036,325.029,463.37,387.253,416.124,430.614z"/>
	</g>
</g>
<g>
	<g>
		<path d="M215.296,144.999c-3.704-3.704-9.704-3.704-13.407,0l-37.926,37.926c-3.704,3.704-3.704,9.706,0,13.41
			c1.852,1.849,4.278,2.778,6.704,2.778c2.426,0,4.852-0.928,6.704-2.778l37.926-37.926C219,154.705,219,148.703,215.296,144.999z"
			/>
	</g>
</g>
<g>
	<g>
		<path d="M348.037,182.925l-37.926-37.926c-3.704-3.704-9.704-3.704-13.407,0c-3.704,3.704-3.704,9.706,0,13.41l37.926,37.926
			c1.852,1.849,4.278,2.778,6.704,2.778c2.426,0,4.852-0.928,6.704-2.778C351.74,192.631,351.74,186.629,348.037,182.925z"/>
	</g>
</g>
<g>
	<g>
		<path d="M199.111,208.594c-10.458,0-18.963,8.509-18.963,18.963c0,10.454,8.505,18.963,18.963,18.963
			c10.458,0,18.963-8.509,18.963-18.963C218.074,217.103,209.57,208.594,199.111,208.594z"/>
	</g>
</g>
<g>
	<g>
		<path d="M312.889,208.594c-10.458,0-18.963,8.509-18.963,18.963c0,10.454,8.505,18.963,18.963,18.963
			c10.458,0,18.963-8.509,18.963-18.963C331.852,217.103,323.347,208.594,312.889,208.594z"/>
	</g>
</g>
<g>
</g>
<g>
</g>
<g>
</g>
<g>
</g>
<g>
</g>
<g>
</g>
<g>
</g>
<g>
</g>
<g>
</g>
<g>
</g>
<g>
</g>
<g>
</g>
<g>
</g>
<g>
</g>
<g>
</g>
</svg>
