<?xml version="1.0" standalone="no"?>
<!DOCTYPE svg PUBLIC "-//W3C//DTD SVG 20010904//EN"
 "http://www.w3.org/TR/2001/REC-SVG-20010904/DTD/svg10.dtd">
<svg version="1.0" xmlns="http://www.w3.org/2000/svg"
 width="300.000000pt" height="384.000000pt" viewBox="0 0 300.000000 384.000000"
 preserveAspectRatio="xMidYMid meet">
<metadata>
Created by potrace 1.10, written by Peter Selinger 2001-2011
</metadata>
<g transform="translate(0.000000,384.000000) scale(0.100000,-0.100000)"
fill="#000000" stroke="none">
<path d="M1815 3823 c-16 -2 -49 -11 -71 -19 -40 -15 -42 -18 -48 -67 -3 -29
-9 -62 -12 -74 -4 -14 1 -28 16 -43 27 -27 40 -17 64 50 10 28 28 57 40 65 22
14 111 24 121 13 15 -15 -30 -85 -97 -151 -101 -100 -152 -171 -168 -236 -12
-53 -12 -55 10 -73 38 -31 64 -20 70 28 8 55 23 76 145 203 82 87 107 120 124
166 28 73 24 94 -18 122 -34 23 -88 28 -176 16z m183 -69 c6 -45 -38 -115
-143 -225 -99 -104 -145 -168 -145 -204 0 -8 -4 -15 -10 -15 -12 0 -13 35 -1
77 11 38 93 140 166 205 64 58 103 136 83 168 -18 28 -36 32 -98 20 -65 -12
-77 -22 -107 -85 l-24 -50 6 59 c3 33 7 61 9 63 2 2 41 12 87 22 79 17 87 17
129 2 31 -11 46 -23 48 -37z"/>
<path d="M1658 3179 c-21 -12 -25 -78 -6 -97 18 -18 53 -15 71 6 24 26 21 44
-11 75 -32 30 -31 30 -54 16z m40 -58 c3 -16 -1 -22 -10 -19 -7 3 -15 15 -16
27 -3 16 1 22 10 19 7 -3 15 -15 16 -27z"/>
<path d="M2245 2841 c-126 -32 -253 -65 -281 -74 -29 -8 -119 -25 -200 -36
-82 -12 -180 -26 -217 -31 -37 -6 -152 -13 -255 -17 -189 -6 -247 -16 -266
-46 -12 -18 17 -355 39 -452 7 -33 19 -100 26 -148 l12 -88 -64 -66 c-35 -36
-93 -89 -129 -118 -36 -29 -118 -105 -184 -170 -108 -108 -126 -121 -200 -151
-108 -45 -158 -102 -103 -118 l22 -7 -25 -17 c-38 -26 -80 -69 -80 -83 0 -8
11 -10 35 -6 39 6 43 -2 19 -39 -9 -13 -14 -27 -11 -30 7 -7 82 31 137 71 80
58 325 190 364 197 18 3 19 -5 15 -187 -4 -215 -2 -310 6 -343 5 -20 11 -23
43 -20 33 3 36 6 37 33 0 28 3 30 35 29 63 -2 475 -78 590 -109 60 -17 448
-37 610 -33 l95 3 3 -89 c3 -94 -18 -255 -43 -325 -8 -23 -34 -73 -59 -111
-25 -38 -52 -83 -61 -100 -9 -17 -20 -28 -24 -26 -5 3 -12 38 -15 78 -4 40
-10 83 -13 95 -4 18 1 25 20 32 13 5 27 16 30 24 9 23 -38 28 -300 27 -131 -1
-276 4 -323 10 -162 20 -314 30 -323 21 -16 -16 2 -29 58 -41 l55 -12 -61 -71
c-110 -128 -118 -137 -126 -137 -4 0 -30 41 -56 91 -58 107 -84 216 -94 392
-6 120 -15 147 -49 147 -23 0 -36 -49 -29 -109 16 -145 49 -328 70 -391 l23
-68 -91 4 c-51 2 -144 -1 -207 -7 -63 -5 -216 -12 -339 -15 -160 -3 -235 -9
-267 -20 -24 -8 -52 -14 -62 -12 -18 3 -31 -37 -15 -53 4 -4 168 -19 363 -33
754 -54 751 -54 985 -53 66 0 138 0 160 -1 377 -8 471 -11 530 -16 64 -6 72
-4 97 16 23 20 138 201 183 288 23 45 43 179 51 335 5 114 11 154 33 215 23
68 26 89 25 215 0 77 -6 164 -12 194 -8 34 -9 58 -3 64 30 30 255 -103 319
-188 45 -59 107 -90 127 -62 7 9 20 14 31 11 12 -3 26 1 34 11 11 13 10 19 -9
38 -30 33 -26 40 19 32 53 -9 53 11 0 64 -39 39 -99 61 -165 61 -25 0 -33 14
-15 25 6 3 10 13 10 22 0 20 -138 172 -220 241 -62 52 -107 106 -157 187 -21
34 -23 48 -23 188 0 83 -5 202 -11 264 -9 79 -9 116 -1 125 6 7 40 28 75 46
46 24 69 42 77 63 7 16 39 50 71 77 33 26 58 54 57 62 -5 25 -128 42 -233 32
-49 -5 -92 -8 -93 -6 -2 1 6 11 18 21 25 21 141 168 159 201 13 24 7 42 -12
41 -7 0 -115 -26 -242 -58z m215 11 c0 -13 -12 -22 -22 -16 -10 6 -1 24 13 24
5 0 9 -4 9 -8z m-40 -32 c0 -5 -37 -47 -82 -93 -97 -98 -201 -171 -235 -164
-30 6 -40 -10 -19 -31 14 -14 21 -14 83 6 38 11 96 28 131 37 74 18 237 20
248 4 9 -15 -101 -125 -151 -151 -37 -20 -58 -21 -310 -23 -199 -1 -297 -6
-373 -19 -57 -9 -170 -20 -251 -25 -137 -7 -153 -10 -212 -39 -35 -17 -72 -37
-81 -44 -9 -7 -19 -10 -22 -8 -2 3 -9 64 -15 135 -7 72 -14 138 -17 148 -4 11
5 28 25 46 27 26 38 29 133 35 98 7 504 50 578 62 19 3 105 24 190 46 194 51
340 86 363 87 9 1 17 -3 17 -9z m-1303 -198 c-31 -32 -33 -66 -17 -236 11
-108 29 -151 61 -143 10 3 19 4 19 4 0 -1 -9 -26 -21 -56 l-20 -55 22 -150
c12 -83 28 -164 36 -179 8 -15 32 -40 53 -55 52 -36 51 -49 -1 -20 -50 28
-109 91 -109 117 0 11 -9 26 -21 34 -20 14 -20 16 -4 47 17 33 16 52 -16 225
-17 90 -38 258 -45 361 -8 117 -12 110 85 133 3 1 -7 -12 -22 -27z m1191 1
c-2 -12 -14 -19 -33 -21 l-30 -3 25 20 c31 25 42 26 38 4z m286 -34 c-8 -13
-21 -11 -27 5 -4 10 0 12 14 9 10 -3 16 -9 13 -14z m-304 -235 c7 -7 12 -93
13 -256 2 -262 4 -248 -52 -368 -4 -8 -25 -24 -47 -35 -34 -17 -67 -21 -244
-26 -113 -4 -236 -3 -275 2 -38 4 -115 13 -170 19 -80 8 -114 17 -170 45 -126
62 -123 57 -151 239 l-24 159 21 58 c37 101 67 115 284 130 83 6 209 19 280
29 149 22 515 24 535 4z m50 12 c0 -3 -4 -8 -10 -11 -5 -3 -10 -1 -10 4 0 6 5
11 10 11 6 0 10 -2 10 -4z m-10 -593 c-31 -27 -37 -15 -13 29 13 24 19 65 23
153 l5 120 5 -140 c5 -140 5 -140 -20 -162z m-1210 58 c11 -40 73 -107 126
-134 18 -9 90 -19 184 -27 85 -6 187 -15 225 -20 39 -5 163 -9 276 -9 177 -1
214 2 261 18 76 26 135 61 147 88 9 20 24 7 203 -173 125 -126 194 -203 196
-219 2 -17 -5 -29 -23 -41 -14 -9 -24 -23 -21 -30 7 -19 2 -18 -41 12 -60 41
-186 102 -238 115 -39 10 -49 9 -56 -2 -13 -20 -11 -96 4 -154 8 -31 13 -104
12 -190 0 -136 -1 -142 -30 -195 l-30 -55 -315 0 c-289 1 -322 2 -400 22 -131
34 -209 51 -280 62 -184 29 -267 45 -287 57 -43 27 -56 98 -51 292 3 98 8 185
13 195 5 13 14 17 29 12 35 -11 49 -10 53 1 3 10 -107 67 -131 68 -5 1 -10 -7
-12 -17 -4 -29 -26 -49 -82 -74 -29 -13 -84 -41 -123 -63 -39 -22 -75 -40 -80
-40 -16 0 -42 67 -36 92 4 13 41 55 84 94 43 38 134 124 203 190 111 108 180
164 202 164 4 0 12 -17 18 -39z m-140 -353 c0 -2 -7 -21 -15 -43 -21 -60 -21
-370 1 -424 15 -38 15 -43 -3 -80 -10 -22 -21 -41 -25 -41 -4 0 -9 123 -10
273 -3 228 -1 276 12 294 12 18 41 32 40 21z m-412 -78 c3 -20 -24 -36 -77
-45 -55 -9 -53 10 5 42 43 25 67 26 72 3z m1847 -29 c3 -5 1 -12 -5 -16 -5 -3
-10 -27 -11 -53 0 -35 -3 -42 -9 -27 -15 35 -12 105 4 105 8 0 17 -4 21 -9z
m-1820 -51 c0 -16 -126 -121 -137 -114 -4 3 -1 16 8 29 20 31 2 42 -32 20 -14
-9 -28 -14 -32 -11 -7 8 -8 7 68 55 67 43 125 53 125 21z m2283 -65 c28 -13
52 -28 52 -34 0 -5 -25 -7 -60 -4 -49 5 -60 3 -60 -9 0 -8 11 -20 25 -26 23
-11 24 -15 14 -34 -6 -13 -13 -24 -14 -26 -9 -10 -59 36 -80 73 -31 52 -31 63
-2 75 37 15 69 11 125 -15z m17 -104 c3 -5 1 -12 -5 -16 -5 -3 -10 1 -10 9 0
18 6 21 15 7z m-529 -353 c-3 -24 -6 -63 -7 -88 -2 -38 -3 -33 -9 25 -5 45 -3
76 4 88 16 26 18 21 12 -25z m-1416 -152 c0 -44 -2 -77 -4 -75 -2 2 -7 45 -10
94 -5 63 -4 86 3 75 6 -8 11 -51 11 -94z m410 -266 c0 -5 -4 -10 -9 -10 -6 0
-13 5 -16 10 -3 6 1 10 9 10 9 0 16 -4 16 -10z m960 -13 c0 -27 -151 -284
-183 -311 -17 -14 -31 -17 -67 -11 -57 8 -249 14 -665 19 -181 3 -431 12 -555
20 -496 34 -667 46 -720 52 -98 11 -21 25 165 30 94 3 238 9 320 15 83 6 202
10 266 10 143 -1 151 4 126 83 -25 77 -20 100 7 36 38 -92 90 -175 111 -179
15 -2 42 20 99 80 45 48 69 69 57 49 -40 -63 -46 -80 -34 -98 15 -24 94 -29
475 -30 385 -1 363 -7 346 103 -5 39 -17 82 -25 98 -12 24 -12 27 1 27 27 0
45 -12 39 -26 -3 -8 -2 -53 2 -99 7 -92 32 -143 61 -127 18 10 140 204 156
249 14 39 18 41 18 10z m-754 -23 c55 -12 103 -14 248 -9 111 4 186 2 195 -3
8 -6 17 -34 22 -64 4 -29 10 -64 14 -78 l6 -26 -391 2 c-216 2 -395 5 -398 8
-3 4 4 16 15 29 11 12 38 52 59 90 l38 67 63 0 c34 0 92 -7 129 -16z"/>
<path d="M2072 2238 c-19 -19 -14 -46 12 -63 22 -15 27 -15 55 -1 42 22 48 36
21 58 -25 21 -70 24 -88 6z m53 -28 c3 -5 -1 -10 -9 -10 -9 0 -16 5 -16 10 0
6 4 10 9 10 6 0 13 -4 16 -10z"/>
<path d="M1347 2213 c-14 -14 -6 -50 16 -71 29 -28 42 -28 61 0 20 28 7 52
-35 67 -38 13 -34 13 -42 4z m43 -43 c0 -5 -2 -10 -4 -10 -3 0 -8 5 -11 10 -3
6 -1 10 4 10 6 0 11 -4 11 -10z"/>
<path d="M1541 1906 c-33 -18 -56 -75 -38 -93 24 -24 84 -27 143 -7 48 16 54
21 54 45 0 57 -96 90 -159 55z m107 -38 c4 -23 -50 -50 -83 -42 -34 8 -37 17
-19 43 13 18 24 21 57 19 30 -2 43 -8 45 -20z"/>
</g>
</svg>
