<?xml version="1.0" standalone="no"?>
<!DOCTYPE svg PUBLIC "-//W3C//DTD SVG 20010904//EN"
 "http://www.w3.org/TR/2001/REC-SVG-20010904/DTD/svg10.dtd">
<svg version="1.0" xmlns="http://www.w3.org/2000/svg"
 width="300.000000pt" height="21.000000pt" viewBox="0 0 300.000000 21.000000"
 preserveAspectRatio="xMidYMid meet">
<metadata>
Created by potrace 1.10, written by Peter Selinger 2001-2011
</metadata>
<g transform="translate(0.000000,21.000000) scale(0.100000,-0.100000)"
fill="#000000" stroke="none">
<path d="M86 113 c25 -62 47 -78 58 -41 l7 23 9 -23 c14 -35 37 -26 53 21 8
23 18 50 22 60 5 13 2 17 -13 17 -15 0 -21 -9 -26 -35 -4 -19 -12 -35 -17 -35
-9 0 -7 17 8 58 3 6 -2 12 -10 12 -9 0 -18 -8 -20 -17 -4 -17 -5 -17 -6 0 -1
10 -9 17 -21 17 -17 0 -19 -3 -10 -19 5 -11 10 -30 9 -43 0 -17 -5 -11 -16 20
-10 28 -21 42 -33 42 -17 0 -16 -4 6 -57z"/>
<path d="M300 110 c0 -47 3 -60 15 -60 9 0 15 9 15 25 0 18 5 25 20 25 15 0
20 -7 20 -25 0 -16 6 -25 15 -25 12 0 15 13 15 60 0 47 -3 60 -15 60 -8 0 -15
-9 -15 -20 0 -13 -7 -20 -20 -20 -13 0 -20 7 -20 20 0 11 -7 20 -15 20 -12 0
-15 -13 -15 -60z"/>
<path d="M470 110 l0 -60 45 0 c33 0 45 4 45 15 0 10 -10 15 -30 15 -16 0 -30
5 -30 10 0 6 11 10 25 10 16 0 25 6 25 16 0 11 -6 13 -19 9 -11 -3 -22 -1 -26
5 -4 6 6 10 24 10 21 0 31 5 31 15 0 11 -12 15 -45 15 l-45 0 0 -60z"/>
<path d="M620 110 c0 -54 2 -60 21 -60 16 0 19 4 14 20 -3 11 -2 20 4 20 5 0
13 -9 16 -20 3 -11 15 -20 26 -20 21 0 25 10 8 27 -8 8 -8 17 0 32 19 35 -2
61 -49 61 l-40 0 0 -60z m60 20 c0 -5 -7 -10 -15 -10 -8 0 -15 5 -15 10 0 6 7
10 15 10 8 0 15 -4 15 -10z"/>
<path d="M780 110 l0 -60 45 0 c33 0 45 4 45 15 0 10 -10 15 -30 15 -16 0 -30
5 -30 10 0 6 11 10 25 10 16 0 25 6 25 16 0 11 -6 13 -19 9 -11 -3 -22 -1 -26
5 -4 6 6 10 24 10 21 0 31 5 31 15 0 11 -12 15 -45 15 l-45 0 0 -60z"/>
<path d="M1025 110 l0 -60 30 0 c43 0 75 25 75 59 0 37 -28 61 -71 61 l-34 0
0 -60z m69 14 c6 -17 -9 -44 -25 -44 -5 0 -9 14 -9 30 0 33 23 42 34 14z"/>
<path d="M1190 110 c0 -53 2 -60 20 -60 18 0 20 7 20 60 0 53 -2 60 -20 60
-18 0 -20 -7 -20 -60z"/>
<path d="M1300 110 l0 -60 33 0 c40 0 67 25 67 63 0 35 -25 57 -66 57 l-34 0
0 -60z m65 0 c0 -16 -6 -26 -17 -28 -14 -3 -18 3 -18 28 0 25 4 31 18 28 11
-2 17 -12 17 -28z"/>
<path d="M1560 110 c0 -47 3 -60 15 -60 12 0 15 13 15 60 0 47 -3 60 -15 60
-12 0 -15 -13 -15 -60z"/>
<path d="M1750 110 l0 -60 45 0 c33 0 45 4 45 15 0 10 -10 15 -30 15 -29 0
-30 2 -30 45 0 33 -4 45 -15 45 -12 0 -15 -13 -15 -60z"/>
<path d="M1900 110 l0 -60 40 0 c29 0 40 4 40 15 0 9 -9 15 -25 15 -14 0 -25
5 -25 10 0 6 9 10 20 10 11 0 20 7 20 16 0 11 -6 14 -20 9 -11 -4 -20 -2 -20
4 0 6 11 11 25 11 16 0 25 6 25 15 0 11 -11 15 -40 15 l-40 0 0 -60z"/>
<path d="M2054 110 c-18 -50 -19 -60 -6 -60 8 0 21 8 28 17 13 17 15 17 28 1
7 -10 20 -18 29 -18 14 0 14 7 -5 60 -14 38 -28 60 -37 60 -10 0 -24 -21 -37
-60z m42 -7 c-10 -10 -19 5 -10 18 6 11 8 11 12 0 2 -7 1 -15 -2 -18z"/>
<path d="M2200 163 c0 -4 9 -30 19 -58 25 -65 44 -69 64 -13 8 24 18 51 22 61
5 13 2 17 -13 17 -15 0 -22 -10 -29 -37 l-10 -38 -10 35 c-5 20 -17 36 -26 38
-9 2 -17 0 -17 -5z"/>
<path d="M2370 110 l0 -60 40 0 c29 0 40 4 40 15 0 9 -9 15 -25 15 -14 0 -25
5 -25 10 0 6 12 10 26 10 16 0 24 5 21 13 -2 6 -14 11 -26 10 -11 -2 -21 2
-21 7 0 6 11 10 25 10 16 0 25 6 25 15 0 11 -11 15 -40 15 l-40 0 0 -60z"/>
<path d="M2600 110 c0 -51 3 -60 18 -60 15 0 18 9 17 60 0 50 -3 60 -17 60
-15 0 -18 -10 -18 -60z"/>
<path d="M2700 155 c0 -8 7 -15 15 -15 11 0 15 -12 15 -45 0 -36 3 -45 18 -45
14 0 17 7 14 45 -4 40 -2 45 17 45 12 0 21 6 21 15 0 11 -12 15 -50 15 -38 0
-50 -4 -50 -15z"/>
<path d="M2855 161 c-3 -6 -3 -12 2 -13 4 0 13 -2 18 -3 6 -2 15 -3 20 -4 6
-1 -1 -10 -15 -21 -31 -23 -19 -38 15 -20 36 19 31 64 -7 68 -14 2 -29 -2 -33
-7z"/>
<path d="M2860 65 c0 -8 7 -15 15 -15 8 0 15 7 15 15 0 8 -7 15 -15 15 -8 0
-15 -7 -15 -15z"/>
</g>
</svg>
